<svg version="1.1" xmlns="http://www.w3.org/2000/svg" xmlns:xlink="http://www.w3.org/1999/xlink" width="1280.000000pt" height="983.000000pt" viewBox="0,0,256,196.60001"><g fill="#ffffff" fill-rule="nonzero" stroke="none" stroke-width="1" stroke-linecap="butt" stroke-linejoin="miter" stroke-miterlimit="10" stroke-dasharray="" stroke-dashoffset="0" font-family="none" font-weight="none" font-size="none" text-anchor="none" style="mix-blend-mode: normal"><g transform="translate(-1.06018,-2.73119) scale(0.2,0.2)"><g transform="translate(0,983) scale(0.1,-0.1)"><path d="M3710,8924c-157,-10 -318,-27 -432,-44c-519,-79 -973,-270 -1343,-567c-127,-101 -329,-309 -423,-435c-147,-196 -294,-461 -387,-698c-64,-162 -58,-278 17,-334c16,-11 124,-45 250,-78c353,-92 1560,-368 1612,-368c56,0 104,21 129,55c9,13 41,78 71,145c124,277 288,474 496,596c177,104 310,139 514,132c157,-5 175,-12 239,-98c139,-185 138,-458 -2,-670c-68,-102 -211,-266 -447,-510c-468,-485 -632,-693 -774,-985c-184,-378 -253,-668 -254,-1070c-1,-189 -1,-190 27,-247c16,-32 45,-71 65,-88c72,-59 78,-60 719,-60h584l162,41c174,43 228,68 275,125c38,45 49,92 57,224c18,305 114,543 321,791c87,104 389,378 689,623c176,143 370,323 455,421c132,151 264,367 326,532c88,233 115,550 68,797c-36,188 -131,406 -247,568c-99,137 -348,420 -449,508c-430,378 -1038,618 -1718,680c-124,11 -510,20 -600,14z"></path><path d="M9855,4725c-85,-19 -170,-50 -231,-85c-70,-39 -3804,-2428 -3826,-2448c-14,-11 -15,-18 -7,-29c9,-10 89,-13 419,-13c560,0 600,8 975,197c196,98 2930,1489 4115,2094c293,149 525,273 525,281c0,20 -1883,23 -1970,3z"></path><path d="M2976,2855c-110,-35 -210,-72 -224,-82c-14,-11 -35,-37 -46,-59c-21,-38 -21,-51 -24,-959l-3,-920l23,-83l23,-83l50,-17c45,-15 132,-17 925,-20c905,-3 947,-2 1035,38c22,9 81,55 130,100c50,45 115,101 145,124c31,22 342,203 693,401c350,198 637,365 637,371c0,7 -7,15 -16,18c-9,3 -281,6 -605,6c-324,0 -590,1 -591,3c-1,1 -5,250 -8,552c-5,531 -6,551 -26,589c-11,22 -33,49 -48,60c-27,21 -36,21 -949,23l-922,2z"></path></g></g></g></svg>